<?xml version="1.0" encoding="UTF-8" standalone="no"?>
<!DOCTYPE svg PUBLIC "-//W3C//DTD SVG 1.1//EN" "http://www.w3.org/Graphics/SVG/1.1/DTD/svg11.dtd">
<svg width="100%" height="100%" viewBox="0 0 900 900" version="1.1" xmlns="http://www.w3.org/2000/svg" xmlns:xlink="http://www.w3.org/1999/xlink" xml:space="preserve" xmlns:serif="http://www.serif.com/" style="fill-rule:evenodd;clip-rule:evenodd;stroke-linejoin:round;stroke-miterlimit:2;">
    <g>
        <path d="M256.6,711.046L338.692,711.046L338.692,498.369L336.811,497.605C316.752,489.456 297.085,480.602 277.81,471.043C258.534,461.483 237.98,452.799 225.331,442.188C210.095,429.406 189.151,408.907 179.905,391.355C170.659,373.803 166.036,352.961 166.036,328.827C166.036,307.828 170.424,287.142 179.2,266.769C183.483,256.826 188.924,247.423 195.523,238.561L195.523,238.561C195.523,238.561 242.493,168.103 302.779,168.103C323.516,168.103 516.67,168.44 516.67,168.44L516.67,238.561L423.316,238.561L423.316,444.098L424.256,444.48C444.315,452.629 463.983,461.562 483.258,471.278C502.534,480.994 519.694,492.512 534.738,505.833C549.782,519.153 561.927,534.746 571.173,552.611C580.419,570.476 585.042,591.632 585.042,616.079C585.042,645.227 579.087,670.771 567.177,692.711C563.687,699.139 559.794,705.251 555.498,711.046L555.498,711.046L555.495,711.051C552.478,715.119 549.263,719.032 545.851,722.786C545.851,722.786 496.558,782.507 437.988,782.507C413.143,782.507 377.556,782.507 341.513,782.507L256.6,782.507L256.6,711.046ZM423.316,533.54L423.316,709.163C439.214,705.012 452.455,699.293 463.042,692.006C475.109,683.7 483.885,673.592 489.37,661.682C494.855,649.772 497.597,636.138 497.597,620.78C497.597,604.169 492.974,589.987 483.728,578.233C474.482,566.48 462.337,555.98 447.293,546.734C439.822,542.143 431.829,537.744 423.316,533.54ZM318.093,238.561C318.093,238.561 308.064,248.346 297.32,255.956C274.754,271.941 263.471,293.41 263.471,320.365C263.471,336.976 268.093,351.237 277.339,363.147C286.585,375.057 298.731,385.713 313.775,395.116C321.52,399.957 329.825,404.569 338.692,408.953L338.692,238.561L318.093,238.561Z" style="fill-rule:nonzero;stroke:black;stroke-width:4.17px;"/>
        <g transform="matrix(962.835,0,0,962.835,116.319,782.507)">
            <path d="M0.487,-0.173C0.487,-0.143 0.481,-0.116 0.468,-0.093C0.456,-0.07 0.438,-0.052 0.417,-0.036C0.404,-0.027 0.396,-0.023 0.396,-0.023L0.396,-0.076C0.396,-0.076 0.313,-0.074 0.324,-0.078C0.341,-0.083 0.379,-0.107 0.387,-0.125C0.393,-0.138 0.396,-0.152 0.396,-0.168C0.396,-0.185 0.391,-0.2 0.382,-0.212C0.372,-0.224 0.359,-0.235 0.344,-0.245C0.328,-0.254 0.31,-0.263 0.29,-0.271C0.27,-0.279 0.25,-0.287 0.229,-0.296C0.208,-0.304 0.188,-0.314 0.168,-0.323C0.148,-0.333 0.125,-0.343 0.11,-0.357C0.094,-0.37 0.076,-0.388 0.066,-0.406C0.056,-0.424 0.052,-0.446 0.052,-0.471C0.052,-0.493 0.056,-0.514 0.065,-0.536C0.074,-0.557 0.089,-0.576 0.108,-0.592C0.12,-0.602 0.137,-0.613 0.137,-0.613L0.137,-0.565L0.212,-0.563C0.212,-0.563 0.189,-0.549 0.181,-0.542C0.16,-0.522 0.153,-0.508 0.153,-0.48C0.153,-0.463 0.158,-0.448 0.167,-0.436C0.177,-0.423 0.189,-0.412 0.205,-0.402C0.221,-0.393 0.239,-0.384 0.259,-0.376C0.279,-0.368 0.299,-0.36 0.32,-0.351C0.341,-0.343 0.361,-0.333 0.381,-0.323C0.401,-0.313 0.419,-0.301 0.435,-0.287C0.45,-0.274 0.463,-0.257 0.472,-0.239C0.482,-0.22 0.487,-0.198 0.487,-0.173Z" style="fill:rgb(253,192,89);fill-rule:nonzero;stroke:black;stroke-width:0.01px;stroke-linejoin:miter;stroke-miterlimit:8;"/>
        </g>
    </g>
</svg>
